<?xml version="1.0" encoding="UTF-8"?>
<svg width="440px" height="59px" viewBox="0 0 440 59" version="1.1" xmlns="http://www.w3.org/2000/svg" xmlns:xlink="http://www.w3.org/1999/xlink">
    <!-- Generator: Sketch 63.1 (92452) - https://sketch.com -->
    <title>ChrisErin</title>
    <desc>Created with Sketch.</desc>
    <g id="Page-1" stroke="none" stroke-width="1" fill="none" fill-rule="evenodd" fill-opacity="0.828780594">
        <g id="Desktop" transform="translate(-51.000000, -58.000000)" fill="#2E2E2E" fill-rule="nonzero">
            <path d="M69.8,115.8 C75.0266667,115.8 78.9466667,114.84 81.56,112.92 C84.1733333,111 86.2,108.28 87.64,104.76 L87.64,104.76 L85.48,103.72 C84.2533333,106.813333 82.52,109.2 80.28,110.88 C78.04,112.56 74.5466667,113.4 69.8,113.4 C67.1866667,113.4 64.9466667,113.066667 63.08,112.4 C61.2133333,111.733333 59.5333333,110.6 58.04,109 C56.5466667,107.4 55.4266667,105.093333 54.68,102.08 C53.9333333,99.0666667 53.56,95.3466667 53.56,90.92 L53.56,90.92 L53.56,83.08 C53.56,78.6533333 53.9333333,74.9333333 54.68,71.92 C55.4266667,68.9066667 56.5466667,66.6 58.04,65 C59.5333333,63.4 61.2133333,62.2666667 63.08,61.6 C64.9466667,60.9333333 67.1866667,60.6 69.8,60.6 C74.5466667,60.6 78.04,61.44 80.28,63.12 C82.52,64.8 84.2533333,67.1866667 85.48,70.28 L85.48,70.28 L87.64,69.24 C86.2,65.72 84.1733333,63 81.56,61.08 C78.9466667,59.16 75.0266667,58.2 69.8,58.2 C63.24,58.2 58.4933333,60.2133333 55.56,64.24 C52.6266667,68.2666667 51.16,74.5466667 51.16,83.08 L51.16,83.08 L51.16,90.92 C51.16,99.4533333 52.6266667,105.733333 55.56,109.76 C58.4933333,113.786667 63.24,115.8 69.8,115.8 Z M115.820318,115 L115.820318,91.8 L139.820318,91.8 L139.820318,115 L142.220318,115 L142.220318,68.6 L139.820318,68.6 L139.820318,89.4 L115.820318,89.4 L115.820318,68.6 L113.420318,68.6 L113.420318,115 L115.820318,115 Z M173.680635,115 L173.680635,71 L180.080635,71 C184.827302,71 188.800635,71.8 192.000635,73.4 C195.200635,75 196.800635,77.48 196.800635,80.84 C196.800635,81.7466667 196.693969,82.5866667 196.480635,83.36 C196.267302,84.1333333 195.933969,84.8266667 195.480635,85.44 C195.027302,86.0533333 194.613969,86.5866667 194.240635,87.04 C193.867302,87.4933333 193.307302,87.96 192.560635,88.44 C191.813969,88.92 191.280635,89.2533333 190.960635,89.44 L190.857035,89.4992 C190.523435,89.6864 189.984635,89.96 189.240635,90.32 C188.413969,90.72 187.947302,90.9466667 187.840635,91 L187.840635,91 L199.040635,115 L201.680635,115 L190.800635,91.72 C193.093969,90.7066667 195.067302,89.2533333 196.720635,87.36 C198.373969,85.4666667 199.200635,83.2933333 199.200635,80.84 C199.200635,77.0533333 197.587302,74.0666667 194.360635,71.88 C191.133969,69.6933333 186.373969,68.6 180.080635,68.6 L180.080635,68.6 L171.280635,68.6 L171.280635,115 L173.680635,115 Z M228.820953,115 L228.820953,68.6 L226.420953,68.6 L226.420953,115 L228.820953,115 Z M269.801271,116.04 C275.561271,116.04 279.961271,114.946667 283.001271,112.76 C286.041271,110.573333 287.561271,107.64 287.561271,103.96 C287.561271,100.813333 286.547938,98.2666667 284.521271,96.32 C282.494604,94.3733333 280.027938,92.96 277.121271,92.08 C274.214604,91.2 271.307938,90.36 268.401271,89.56 C265.494604,88.76 263.027938,87.6 261.001271,86.08 C258.974604,84.56 257.961271,82.52 257.961271,79.96 C257.961271,73.3466667 262.121271,70.04 270.441271,70.04 C275.987938,70.04 280.041271,71.2933333 282.601271,73.8 L282.601271,73.8 L284.201271,72.04 C281.427938,69.1066667 276.734604,67.64 270.121271,67.64 C265.907938,67.64 262.427938,68.64 259.681271,70.64 C256.934604,72.64 255.561271,75.6933333 255.561271,79.8 C255.561271,82.84 256.574604,85.2933333 258.601271,87.16 C260.627938,89.0266667 263.094604,90.4 266.001271,91.28 C268.907938,92.16 271.814604,93.0133333 274.721271,93.84 C277.627938,94.6666667 280.094604,95.9066667 282.121271,97.56 C284.147938,99.2133333 285.161271,101.373333 285.161271,104.04 C285.161271,106.6 283.841271,108.84 281.201271,110.76 C278.561271,112.68 274.654604,113.64 269.481271,113.64 C263.827938,113.64 259.641271,112.386667 256.921271,109.88 L256.921271,109.88 L255.321271,111.64 C256.654604,113.08 258.694604,114.173333 261.441271,114.92 C264.187938,115.666667 266.974604,116.04 269.801271,116.04 Z M346.861589,115 L346.861589,112.6 L315.821589,112.6 L315.821589,61.4 L342.861589,61.4 L318.381589,85.72 L342.141589,85.72 L342.141589,83.32 L324.221589,83.32 L348.701589,59 L313.421589,59 L313.421589,115 L346.861589,115 Z M375.441906,115 L375.441906,71 L381.841906,71 C386.588573,71 390.561906,71.8 393.761906,73.4 C396.961906,75 398.561906,77.48 398.561906,80.84 C398.561906,81.7466667 398.45524,82.5866667 398.241906,83.36 C398.028573,84.1333333 397.69524,84.8266667 397.241906,85.44 C396.788573,86.0533333 396.37524,86.5866667 396.001906,87.04 C395.628573,87.4933333 395.068573,87.96 394.321906,88.44 C393.57524,88.92 393.041906,89.2533333 392.721906,89.44 L392.618306,89.4992 C392.284706,89.6864 391.745906,89.96 391.001906,90.32 C390.17524,90.72 389.708573,90.9466667 389.601906,91 L389.601906,91 L400.801906,115 L403.441906,115 L392.561906,91.72 C394.85524,90.7066667 396.828573,89.2533333 398.481906,87.36 C400.13524,85.4666667 400.961906,83.2933333 400.961906,80.84 C400.961906,77.0533333 399.348573,74.0666667 396.121906,71.88 C392.89524,69.6933333 388.13524,68.6 381.841906,68.6 L381.841906,68.6 L373.041906,68.6 L373.041906,115 L375.441906,115 Z M430.582224,115 L430.582224,68.6 L428.182224,68.6 L428.182224,115 L430.582224,115 Z M462.042542,115 L462.042542,72.92 L488.122542,115 L490.522542,115 L490.522542,68.6 L488.122542,68.6 L488.122542,110.6 L462.042542,68.6 L459.642542,68.6 L459.642542,115 L462.042542,115 Z" id="ChrisErin"></path>
        </g>
    </g>
</svg>